<svg width="1440" height="1024" viewBox="0 0 1440 1024" fill="none" xmlns="http://www.w3.org/2000/svg">
<rect width="1440" height="1024" fill="white"/>
<path fill-rule="evenodd" clip-rule="evenodd" d="M496 347.679L497.382 341.872L500.836 336.406L504.982 330.941L509.127 324.451L513.618 318.302L516.381 312.154L521.218 305.322L526.745 299.515L532.963 293.024L536.543 290.159L615.822 289.477C615.822 289.477 624.146 289.527 627.038 285.884C629.929 282.241 629.281 274.578 629.281 274.578V200.217L630.725 199.429L641.779 194.647L652.143 190.889C652.143 190.889 653.179 189.523 664.233 188.156C675.288 186.79 683.233 186.448 690.487 188.156C697.742 189.864 698.433 190.889 698.433 190.889L708.105 196.013L716.05 201.82L723.305 207.285L730.214 213.776L737.468 220.266L743.686 226.073L750.595 233.246L808.976 293.024C808.976 293.024 832.232 309.707 835.23 323.084L838.065 336.406C838.065 336.406 842.648 352.798 848.064 358.61C851.726 362.539 857.717 374.641 862.472 384.246L862.472 384.247L862.472 384.248C864.75 388.849 866.745 392.878 868.063 395.16C879.312 414.63 895.978 445.032 895.978 455.28C895.978 456.29 895.983 457.377 895.988 458.522V458.523C896.035 469 896.105 484.36 892.645 490.279C892.178 491.077 891.741 491.863 891.311 492.636C888.204 498.223 885.471 503.137 874.729 507.105C862.501 511.621 855.147 513.671 838.065 510.388C820.982 507.105 824.732 492.331 824.732 492.331C832.398 501.383 853.897 492.331 853.897 492.331C853.897 492.331 865.563 487.816 865.563 480.429C865.563 473.042 865.472 467.915 863.063 462.453C858.423 451.933 855.257 447.904 848.064 438.883C836.32 424.155 820.62 414.63 809.321 409.842C798.023 405.054 776.849 404.383 776.849 404.383L765.449 395.16C765.449 395.16 774.275 412.346 784.449 418.046C788.751 420.457 792.807 420.521 796.858 420.584C800.936 420.649 805.009 420.713 809.321 423.17C823.196 431.076 832.812 454.255 829.703 458.354C826.928 462.013 826.905 462.406 826.932 462.448C826.527 462.166 809.156 450.122 796.194 448.106C785.094 446.379 767.522 450.497 767.522 450.497C767.522 450.497 755.431 457.671 736.432 462.453C717.432 467.235 691.524 466.552 678.742 464.502C678.742 464.502 663.134 461.597 655.942 455.28C648.497 448.739 646.25 442.634 643.852 433.076C640.208 418.556 643.852 409.165 649.379 395.16C650.017 393.542 650.648 392.006 651.256 390.528L651.256 390.527C655.034 381.334 657.902 374.353 655.942 363.733C654.715 357.081 649.379 347.679 649.379 347.679C649.379 347.679 654.906 376.031 643.852 393.452C632.797 410.873 632.797 438.883 632.797 438.883L592.38 414.63C592.38 414.63 563.362 407.115 556.453 403.699C549.544 400.284 530.89 383.887 530.89 383.887L518.109 369.541C518.109 369.541 518.109 362.709 507.054 358.61C496 354.511 496 347.679 496 347.679ZM826.932 462.448L826.939 462.453C826.939 462.453 826.938 462.453 826.936 462.452C826.935 462.451 826.933 462.45 826.932 462.448Z" fill="#DC2626"/>
<path fill-rule="evenodd" clip-rule="evenodd" d="M538.271 275.885L537.454 276.766L604.816 277.18C604.816 277.18 611.886 277.223 614.342 274.09C614.627 273.726 614.872 273.315 615.081 272.874H615.193V272.629C616.657 269.27 616.247 264.365 616.247 264.365V204.763L613.288 205.87L605.667 209.274L598.761 213.164L592.569 217.54L585.424 222.888L579.947 227.507L574.232 232.369L568.992 236.745L564.706 241.121L561.133 245.74L557.799 250.845C554.465 255.95 556.37 258.381 556.37 258.381C556.37 258.381 553.275 262.028 552.322 263.243C551.369 264.459 548.035 267.619 548.035 267.619L543.272 271.752L538.271 275.885Z" fill="#DC2626"/>
<path d="M782.277 328.8C776.285 321.644 762.918 318.325 762.918 318.325C762.918 318.325 758.773 332.579 766.58 340.228C773.944 347.443 786.299 341.509 792.218 349.751L782.277 328.8Z" fill="white"/>
<path d="M551.5 606H505.422V538.781H551.5V552.234H518.875V565.688H540.953V579.141H518.875V592.547H551.5V606ZM572.406 606L553.281 555.797H567.859L578.828 587.109L589.75 555.797H604.375L585.25 606H572.406ZM627.719 593.719C628.219 593.875 628.719 593.984 629.219 594.047C629.719 594.078 630.219 594.094 630.719 594.094C631.969 594.094 633.172 593.922 634.328 593.578C635.484 593.234 636.562 592.75 637.562 592.125C638.594 591.469 639.5 590.688 640.281 589.781C641.094 588.844 641.75 587.812 642.25 586.688L651.625 596.109C650.438 597.797 649.062 599.312 647.5 600.656C645.969 602 644.297 603.141 642.484 604.078C640.703 605.016 638.812 605.719 636.812 606.188C634.844 606.688 632.812 606.938 630.719 606.938C627.188 606.938 623.859 606.281 620.734 604.969C617.641 603.656 614.922 601.828 612.578 599.484C610.266 597.141 608.438 594.359 607.094 591.141C605.75 587.891 605.078 584.328 605.078 580.453C605.078 576.484 605.75 572.859 607.094 569.578C608.438 566.297 610.266 563.5 612.578 561.188C614.922 558.875 617.641 557.078 620.734 555.797C623.859 554.516 627.188 553.875 630.719 553.875C632.812 553.875 634.859 554.125 636.859 554.625C638.859 555.125 640.75 555.844 642.531 556.781C644.344 557.719 646.031 558.875 647.594 560.25C649.156 561.594 650.531 563.109 651.719 564.797L627.719 593.719ZM634.281 567.328C633.688 567.109 633.094 566.969 632.5 566.906C631.938 566.844 631.344 566.812 630.719 566.812C628.969 566.812 627.312 567.141 625.75 567.797C624.219 568.422 622.875 569.328 621.719 570.516C620.594 571.703 619.703 573.141 619.047 574.828C618.391 576.484 618.062 578.359 618.062 580.453C618.062 580.922 618.078 581.453 618.109 582.047C618.172 582.641 618.25 583.25 618.344 583.875C618.469 584.469 618.609 585.047 618.766 585.609C618.922 586.172 619.125 586.672 619.375 587.109L634.281 567.328ZM670.984 606H658.188V555.797H661.281L665.5 561.75C667.562 559.875 669.906 558.438 672.531 557.438C675.156 556.406 677.875 555.891 680.688 555.891H691.984V568.641H680.688C679.344 568.641 678.078 568.891 676.891 569.391C675.703 569.891 674.672 570.578 673.797 571.453C672.922 572.328 672.234 573.359 671.734 574.547C671.234 575.734 670.984 577 670.984 578.344V606ZM710.734 606H697.938V555.797H701.031L705.25 560.672C707.312 558.797 709.641 557.359 712.234 556.359C714.859 555.328 717.594 554.812 720.438 554.812C723.5 554.812 726.391 555.406 729.109 556.594C731.828 557.75 734.203 559.359 736.234 561.422C738.266 563.453 739.859 565.844 741.016 568.594C742.203 571.312 742.797 574.219 742.797 577.312V606H730V577.312C730 576 729.75 574.766 729.25 573.609C728.75 572.422 728.062 571.391 727.188 570.516C726.312 569.641 725.297 568.953 724.141 568.453C722.984 567.953 721.75 567.703 720.438 567.703C719.094 567.703 717.828 567.953 716.641 568.453C715.453 568.953 714.422 569.641 713.547 570.516C712.672 571.391 711.984 572.422 711.484 573.609C710.984 574.766 710.734 576 710.734 577.312V606ZM800.453 580.453C800.453 584.203 799.781 587.703 798.438 590.953C797.094 594.172 795.266 596.969 792.953 599.344C790.641 601.688 787.922 603.547 784.797 604.922C781.703 606.266 778.375 606.938 774.812 606.938C771.281 606.938 767.953 606.266 764.828 604.922C761.734 603.547 759.016 601.688 756.672 599.344C754.359 596.969 752.531 594.172 751.188 590.953C749.844 587.703 749.172 584.203 749.172 580.453C749.172 576.641 749.844 573.109 751.188 569.859C752.531 566.609 754.359 563.812 756.672 561.469C759.016 559.094 761.734 557.234 764.828 555.891C767.953 554.547 771.281 553.875 774.812 553.875C778.375 553.875 781.703 554.516 784.797 555.797C787.922 557.047 790.641 558.844 792.953 561.188C795.266 563.5 797.094 566.297 798.438 569.578C799.781 572.828 800.453 576.453 800.453 580.453ZM787.562 580.453C787.562 578.391 787.219 576.531 786.531 574.875C785.875 573.188 784.969 571.75 783.812 570.562C782.656 569.344 781.297 568.422 779.734 567.797C778.203 567.141 776.562 566.812 774.812 566.812C773.062 566.812 771.406 567.141 769.844 567.797C768.312 568.422 766.969 569.344 765.812 570.562C764.688 571.75 763.797 573.188 763.141 574.875C762.484 576.531 762.156 578.391 762.156 580.453C762.156 582.391 762.484 584.188 763.141 585.844C763.797 587.5 764.688 588.938 765.812 590.156C766.969 591.375 768.312 592.344 769.844 593.062C771.406 593.75 773.062 594.094 774.812 594.094C776.562 594.094 778.203 593.766 779.734 593.109C781.297 592.453 782.656 591.531 783.812 590.344C784.969 589.156 785.875 587.719 786.531 586.031C787.219 584.344 787.562 582.484 787.562 580.453ZM832.328 606C829.234 606 826.328 605.422 823.609 604.266C820.891 603.078 818.5 601.469 816.438 599.438C814.406 597.375 812.797 594.984 811.609 592.266C810.453 589.547 809.875 586.641 809.875 583.547V568.641H803.641V555.891H809.875V535.828H822.625V555.891H842.031V568.641H822.625V583.547C822.625 584.891 822.875 586.156 823.375 587.344C823.875 588.5 824.562 589.516 825.438 590.391C826.312 591.266 827.344 591.969 828.531 592.5C829.719 593 830.984 593.25 832.328 593.25H842.031V606H832.328ZM869.219 593.719C869.719 593.875 870.219 593.984 870.719 594.047C871.219 594.078 871.719 594.094 872.219 594.094C873.469 594.094 874.672 593.922 875.828 593.578C876.984 593.234 878.062 592.75 879.062 592.125C880.094 591.469 881 590.688 881.781 589.781C882.594 588.844 883.25 587.812 883.75 586.688L893.125 596.109C891.938 597.797 890.562 599.312 889 600.656C887.469 602 885.797 603.141 883.984 604.078C882.203 605.016 880.312 605.719 878.312 606.188C876.344 606.688 874.312 606.938 872.219 606.938C868.688 606.938 865.359 606.281 862.234 604.969C859.141 603.656 856.422 601.828 854.078 599.484C851.766 597.141 849.938 594.359 848.594 591.141C847.25 587.891 846.578 584.328 846.578 580.453C846.578 576.484 847.25 572.859 848.594 569.578C849.938 566.297 851.766 563.5 854.078 561.188C856.422 558.875 859.141 557.078 862.234 555.797C865.359 554.516 868.688 553.875 872.219 553.875C874.312 553.875 876.359 554.125 878.359 554.625C880.359 555.125 882.25 555.844 884.031 556.781C885.844 557.719 887.531 558.875 889.094 560.25C890.656 561.594 892.031 563.109 893.219 564.797L869.219 593.719ZM875.781 567.328C875.188 567.109 874.594 566.969 874 566.906C873.438 566.844 872.844 566.812 872.219 566.812C870.469 566.812 868.812 567.141 867.25 567.797C865.719 568.422 864.375 569.328 863.219 570.516C862.094 571.703 861.203 573.141 860.547 574.828C859.891 576.484 859.562 578.359 859.562 580.453C859.562 580.922 859.578 581.453 859.609 582.047C859.672 582.641 859.75 583.25 859.844 583.875C859.969 584.469 860.109 585.047 860.266 585.609C860.422 586.172 860.625 586.672 860.875 587.109L875.781 567.328Z" fill="black"/>
</svg>
